<svg width="22" height="22" viewBox="0 0 22 22" fill="none" xmlns="http://www.w3.org/2000/svg">
<rect opacity="0.01" x="0.5" y="0.5" width="21" height="21" fill="#181818"/>
<path fill-rule="evenodd" clip-rule="evenodd" d="M12.2132 5.2141C12.2132 4.54357 11.6701 4 11.0001 4C10.3302 4 9.78705 4.54357 9.78705 5.2141V9.78588H5.21307C4.54311 9.78588 4 10.3295 4 11C4 11.6705 4.54311 12.2141 5.21307 12.2141H9.78705V16.7859C9.78705 17.4565 10.3302 18 11.0001 18C11.6701 18 12.2132 17.4565 12.2132 16.7859V12.2141H16.7869C17.4569 12.2141 18 11.6705 18 11C18 10.3295 17.4569 9.78588 16.7869 9.78588H12.2132V5.2141Z" fill="#181818"/>
</svg>
